# xmcd CD database file
#
# Track frame offsets:
#	150
#	12018
#	28440
#	43308
#	56145
#	68523
#	81120
#	95495
#	108868
#	123265
#	138558
#	153450
#	168633
#	184238
#	199218
#	214710
#	229435
#
# Disc length: 3233 seconds
#
# Revision: 5
# Processed by: cddbd v1.5.2PL0 Copyright (c) Steve Scherf et al.
# Submitted via: Fey Extractor 
#
DISCID=f60c9f11
DTITLE=Tampa Red - The Guitar Wizard - Tampa Red The Guitar Wizard
DYEAR=1994
DGENRE=Blues
TTITLE0=Tampa Red - The Guitar Wizard - (Honey) It's Tight Like That
TTITLE1=Tampa Red - The Guitar Wizard - (Big Fat Mama
TTITLE2=Tampa Red - The Guitar Wizard - (No Matter How She Done It
TTITLE3=Tampa Red - The Guitar Wizard - (Reckless Man Blues
TTITLE4=Tampa Red - The Guitar Wizard - (Don't Leave Me Here
TTITLE5=Tampa Red - The Guitar Wizard - (Dead Cats On The Line
TTITLE6=Tampa Red - The Guitar Wizard - (Thing's Bout Comin' My Way
TTITLE7=Tampa Red - The Guitar Wizard - (You Can't Get That Stuff No More
TTITLE8=Tampa Red - The Guitar Wizard - (If You Want Me To Love You
TTITLE9=Tampa Red - The Guitar Wizard - (Turpentine Blues
TTITLE10=Tampa Red - The Guitar Wizard - (Western Bound Blues
TTITLE11=Tampa Red - The Guitar Wizard - (That Stuff Is Here
TTITLE12=Tampa Red - The Guitar Wizard - (Sugar Mama Blues No. 1
TTITLE13=Tampa Red - The Guitar Wizard - (Sugar Mama BLues No. 2
TTITLE14=Tampa Red - The Guitar Wizard - (Black Angle Blues
TTITLE15=Tampa Red - The Guitar Wizard - (Thing's 'bout Comin' My Way
TTITLE16=Tampa Red - The Guitar Wizard - (Denver Blues
EXTD=YEAR: 1994
EXTT0=
EXTT1=
EXTT2=
EXTT3=
EXTT4=
EXTT5=
EXTT6=
EXTT7=
EXTT8=
EXTT9=
EXTT10=
EXTT11=
EXTT12=
EXTT13=
EXTT14=
EXTT15=
EXTT16=
PLAYORDER=
